# xmcd
#
# Track frame offsets:
#	150
#	22917
#	30654
#	32918
#	35042
#	53199
#	55878
#	59800
#	78329
#	97144
#	99227
#	101585
#	104870
#	106496
#	111195
#	113128
#	116001
#	119087
#	122831
#	127854
#	128826
#	131281
#	134536
#	144203
#	147362
#	150964
#	152759
#	158210
#	172272
#	176821
#	179689
#
# Disc length: 2622 seconds
#
# Revision: 1
# Processed by: cddbd v1.5.1PL0 Copyright (c) Steve Scherf et al.
# Submitted via: CDex 1.50Beta5
#
DISCID=c70a3c1f
DTITLE=KID - Memories off 2nd OVA Sound Collection
DYEAR=1900
DGENRE=Soundtrack
TTITLE0=水樹奈々/Nocturne
TTITLE1=KID/ほたるの決意
TTITLE2=KID/告白、そして…
TTITLE3=KID/鷹乃が泳いで香奈が計って
TTITLE4=KID/Pathetique 〜Real piano ver.〜 (Beethoven)
TTITLE5=KID/健ちゃんの部屋からイチャイチャ
TTITLE6=KID/プールへ行こう
TTITLE7=KID/Firefly
TTITLE8=KID/Swallow
TTITLE9=KID/希ちゃん、危ないって
TTITLE10=KID/つばめの忠告
TTITLE11=KID/巴、芝居の練習
TTITLE12=KID/メール…
TTITLE13=KID/ラブラブステージ
TTITLE14=KID/寂しいピアノ
TTITLE15=KID/そっけないメールばかり
TTITLE16=KID/健の言葉に
TTITLE17=KID/花火大会
TTITLE18=KID/キス
TTITLE19=KID/弾けない…
TTITLE20=KID/デート
TTITLE21=KID/あの夜の出来事
TTITLE22=KID/微妙な空気
TTITLE23=KID/静流の電話
TTITLE24=KID/あの頃
TTITLE25=KID/会わなければ良かったのに
TTITLE26=KID/会いたくない
TTITLE27=KID/演奏が続かない
TTITLE28=KID/ほたるのピアノ
TTITLE29=KID/ここから始まる
TTITLE30=千葉紗子&南里侑香/Usual place (ショート ver.)
EXTD=
EXTT0=
EXTT1=
EXTT2=
EXTT3=
EXTT4=
EXTT5=
EXTT6=
EXTT7=
EXTT8=
EXTT9=
EXTT10=
EXTT11=
EXTT12=
EXTT13=
EXTT14=
EXTT15=
EXTT16=
EXTT17=
EXTT18=
EXTT19=
EXTT20=
EXTT21=
EXTT22=
EXTT23=
EXTT24=
EXTT25=
EXTT26=
EXTT27=
EXTT28=
EXTT29=
EXTT30=
PLAYORDER=
